<svg xmlns="http://www.w3.org/2000/svg" viewBox="0 0 200 230" fill="none">
  <!-- Shield outline -->
  <path d="M100 8 L188 50 C188 50 192 150 100 222 C8 150 12 50 12 50 Z" fill="white" stroke="white" stroke-width="2"/>
  <!-- Inner shield -->
  <path d="M100 22 L176 58 C176 58 180 144 100 210 C20 144 24 58 24 58 Z" fill="#060414"/>
  <!-- Bar chart bars -->
  <rect x="48" y="150" width="18" height="40" rx="2" fill="white" opacity="0.9"/>
  <rect x="72" y="130" width="18" height="60" rx="2" fill="white" opacity="0.9"/>
  <rect x="96" y="110" width="18" height="80" rx="2" fill="white" opacity="0.9"/>
  <rect x="120" y="88" width="18" height="102" rx="2" fill="white" opacity="0.9"/>
  <rect x="144" y="66" width="18" height="124" rx="2" fill="white" opacity="0.9"/>
  <!-- Star -->
  <polygon points="148,55 151,47 154,55 162,55 156,60 158,68 151,63 144,68 146,60 140,55" fill="white"/>
</svg>
